<mxfile host="app.diagrams.net" modified="2024-04-16T14:30:21.863Z" agent="Mozilla/5.0 (Windows NT 10.0; Win64; x64) AppleWebKit/537.36 (KHTML, like Gecko) Chrome/122.0.0.0 Safari/537.36" version="24.2.5" etag="wJGWSoHuxaA4Yz45jm63" type="github">
  <diagram name="Sayfa -1" id="_LIdFI74QxFsRH7-lx0c">
    <mxGraphModel>
      <root>
        <mxCell id="0" />
        <mxCell id="1" parent="0" />
      </root>
    </mxGraphModel>
  </diagram>
</mxfile>
